<?xml version="1.0" encoding="UTF-8"?>
<!DOCTYPE svg PUBLIC "-//W3C//DTD SVG 1.1//EN" "http://www.w3.org/Graphics/SVG/1.1/DTD/svg11.dtd">
<svg xmlns="http://www.w3.org/2000/svg" version="1.1" width="16px" height="16px" style="shape-rendering:geometricPrecision; text-rendering:geometricPrecision; image-rendering:optimizeQuality; fill-rule:evenodd; clip-rule:evenodd" xmlns:xlink="http://www.w3.org/1999/xlink">
<g><path style="opacity:1" fill="#f4faf6" d="M -0.5,-0.5 C 4.83333,-0.5 10.1667,-0.5 15.5,-0.5C 15.5,1.83333 15.5,4.16667 15.5,6.5C 13.5153,5.95252 11.8486,4.95252 10.5,3.5C 10.189,2.52216 9.5223,1.85549 8.5,1.5C 7.26501,2.33977 6.26501,3.33977 5.5,4.5C 4.79105,3.59603 3.79105,3.26269 2.5,3.5C 2.5,4.5 2.5,5.5 2.5,6.5C 1.60895,7.10978 0.608953,7.44312 -0.5,7.5C -0.5,4.83333 -0.5,2.16667 -0.5,-0.5 Z"/></g>
<g><path style="opacity:1" fill="#6cd206" d="M 5.5,4.5 C 4.22235,4.78219 3.22235,5.44886 2.5,6.5C 2.5,5.5 2.5,4.5 2.5,3.5C 3.79105,3.26269 4.79105,3.59603 5.5,4.5 Z"/></g>
<g><path style="opacity:1" fill="#85d549" d="M 10.5,3.5 C 10.2041,5.40301 9.53747,7.06967 8.5,8.5C 7.73261,7.82803 7.06594,6.9947 6.5,6C 7.98392,5.33782 9.31725,4.50449 10.5,3.5 Z"/></g>
<g><path style="opacity:1" fill="#edf4fb" d="M 10.5,3.5 C 11.8486,4.95252 13.5153,5.95252 15.5,6.5C 15.5,9.5 15.5,12.5 15.5,15.5C 10.1667,15.5 4.83333,15.5 -0.5,15.5C -0.5,14.8333 -0.5,14.1667 -0.5,13.5C 1.02694,13.573 2.02694,12.9063 2.5,11.5C 4.48324,11.8432 5.81658,11.1765 6.5,9.5C 7.49162,9.67158 8.15829,9.33825 8.5,8.5C 9.53747,7.06967 10.2041,5.40301 10.5,3.5 Z"/></g>
<g><path style="opacity:1" fill="#a5cce3" d="M 10.5,3.5 C 9.31725,4.50449 7.98392,5.33782 6.5,6C 7.06594,6.9947 7.73261,7.82803 8.5,8.5C 8.15829,9.33825 7.49162,9.67158 6.5,9.5C 4.93446,8.9394 3.60113,9.60607 2.5,11.5C 1.39105,11.5569 0.391047,11.8902 -0.5,12.5C -0.5,10.8333 -0.5,9.16667 -0.5,7.5C 0.608953,7.44312 1.60895,7.10978 2.5,6.5C 3.22235,5.44886 4.22235,4.78219 5.5,4.5C 6.26501,3.33977 7.26501,2.33977 8.5,1.5C 9.5223,1.85549 10.189,2.52216 10.5,3.5 Z"/></g>
<g><path style="opacity:1" fill="#91d668" d="M 6.5,9.5 C 5.81658,11.1765 4.48324,11.8432 2.5,11.5C 3.60113,9.60607 4.93446,8.9394 6.5,9.5 Z"/></g>
<g><path style="opacity:1" fill="#6cd206" d="M 2.5,11.5 C 2.02694,12.9063 1.02694,13.573 -0.5,13.5C -0.5,13.1667 -0.5,12.8333 -0.5,12.5C 0.391047,11.8902 1.39105,11.5569 2.5,11.5 Z"/></g>
</svg>
